<svg xmlns="http://www.w3.org/2000/svg" viewBox="0 0 860 340" width="860" height="340">
<rect width="860" height="340" fill="#060D1B"/>
<defs><radialGradient id="g1" cx="20%" cy="70%" r="60%"><stop offset="0%" stop-color="#3B82F6" stop-opacity="0.12"/><stop offset="100%" stop-color="#060D1B" stop-opacity="0"/></radialGradient></defs>
<rect width="860" height="340" fill="url(#g1)"/>
<rect x="20" y="20" width="400" height="300" rx="14" fill="#0E1729" stroke="#172236" stroke-width="1.5"/>
<rect x="20" y="20" width="400" height="50" rx="14" fill="#3B82F6" fill-opacity="0.06"/>
<rect x="20" y="56" width="400" height="14" fill="#3B82F6" fill-opacity="0.06"/>
<text x="34" y="42" fill="#F1F5F9" font-size="13" font-weight="600" font-family="sans-serif">Contraceptive Prevalence</text>
<rect x="34" y="50" width="106" height="16" rx="8" fill="#3B82F6" fill-opacity="0.12"/>
<text x="87" y="61" fill="#3B82F6" font-size="9" font-weight="600" text-anchor="middle" font-family="sans-serif">↑ Higher is better</text>
<rect x="336" y="32" width="70" height="24" rx="7" fill="#3B82F6"/>
<text x="371" y="48" fill="#F1F5F9" font-size="10" font-weight="600" text-anchor="middle" font-family="sans-serif">Ask AI</text>
<line x1="34" y1="192" x2="406" y2="192" stroke="#172236" stroke-width="1" stroke-dasharray="4,4"/>
<line x1="34" y1="135" x2="406" y2="135" stroke="#172236" stroke-width="1" stroke-dasharray="4,4"/>
<line x1="34" y1="78" x2="406" y2="78" stroke="#172236" stroke-width="1" stroke-dasharray="4,4"/>
<path d="M78,93 h36 q5,0 5,5 v150 h-46 v-150 q0,-5 5,-5z" fill="#3B82F6" fill-opacity="0.85"/>
<text x="96" y="88" fill="#3B82F6" font-size="9" font-weight="600" text-anchor="middle" font-family="'Fira Code',monospace">64.2</text>
<text x="96" y="262" fill="#475569" font-size="10" text-anchor="middle" font-family="sans-serif">RWA</text>
<path d="M140,99 h36 q5,0 5,5 v144 h-46 v-144 q0,-5 5,-5z" fill="#F59E0B" fill-opacity="0.85"/>
<text x="158" y="94" fill="#F59E0B" font-size="9" font-weight="600" text-anchor="middle" font-family="'Fira Code',monospace">61.4</text>
<text x="158" y="262" fill="#475569" font-size="10" text-anchor="middle" font-family="sans-serif">KEN</text>
<path d="M202,151 h36 q5,0 5,5 v92 h-46 v-92 q0,-5 5,-5z" fill="#10B981" fill-opacity="0.85"/>
<text x="220" y="146" fill="#10B981" font-size="9" font-weight="600" text-anchor="middle" font-family="'Fira Code',monospace">40.3</text>
<text x="220" y="262" fill="#475569" font-size="10" text-anchor="middle" font-family="sans-serif">ETH</text>
<path d="M264,156 h36 q5,0 5,5 v87 h-46 v-87 q0,-5 5,-5z" fill="#A78BFA" fill-opacity="0.85"/>
<text x="282" y="151" fill="#A78BFA" font-size="9" font-weight="600" text-anchor="middle" font-family="'Fira Code',monospace">38.2</text>
<text x="282" y="262" fill="#475569" font-size="10" text-anchor="middle" font-family="sans-serif">TZA</text>
<path d="M326,162 h36 q5,0 5,5 v81 h-46 v-81 q0,-5 5,-5z" fill="#F43F5E" fill-opacity="0.85"/>
<text x="344" y="157" fill="#F43F5E" font-size="9" font-weight="600" text-anchor="middle" font-family="'Fira Code',monospace">35.8</text>
<text x="344" y="262" fill="#475569" font-size="10" text-anchor="middle" font-family="sans-serif">UGA</text>
<text x="30" y="163" fill="#475569" font-size="9" text-anchor="middle" font-family="sans-serif" transform="rotate(-90 30 163)">Prevalence (%)</text>
<rect x="34" y="288" width="372" height="22" rx="6" fill="#060D1B" fill-opacity="0.7" stroke="#172236" stroke-width="1"/>
<text x="42" y="303" fill="#475569" font-size="9" font-family="sans-serif">Metric definition</text>
<text x="398" y="303" fill="#475569" font-size="11" text-anchor="middle">∨</text>
<rect x="440" y="20" width="400" height="300" rx="14" fill="#0E1729" stroke="#3B82F6" stroke-width="1.5" stroke-opacity="0.5"/>
<rect x="440" y="20" width="400" height="300" rx="14" fill="#3B82F6" fill-opacity="0.04"/>
<text x="454" y="42" fill="#F1F5F9" font-size="13" font-weight="600" font-family="sans-serif">Maternal Mortality</text>
<rect x="454" y="50" width="100" height="16" rx="8" fill="#10B981" fill-opacity="0.12"/>
<text x="504" y="61" fill="#10B981" font-size="9" font-weight="600" text-anchor="middle" font-family="sans-serif">↓ Lower is better</text>
<rect x="756" y="32" width="70" height="24" rx="7" fill="#3B82F6"/>
<text x="791" y="48" fill="#F1F5F9" font-size="10" font-weight="600" text-anchor="middle" font-family="sans-serif">Ask AI</text>
<line x1="454" y1="192" x2="826" y2="192" stroke="#172236" stroke-width="1" stroke-dasharray="4,4"/>
<line x1="454" y1="135" x2="826" y2="135" stroke="#172236" stroke-width="1" stroke-dasharray="4,4"/>
<line x1="454" y1="78" x2="826" y2="78" stroke="#172236" stroke-width="1" stroke-dasharray="4,4"/>
<path d="M498,170 h36 q5,0 5,5 v73 h-46 v-73 q0,-5 5,-5z" fill="#10B981" fill-opacity="0.85"/>
<text x="516" y="165" fill="#10B981" font-size="9" font-weight="600" text-anchor="middle" font-family="'Fira Code',monospace">259</text>
<text x="516" y="262" fill="#475569" font-size="10" text-anchor="middle" font-family="sans-serif">RWA</text>
<path d="M560,162 h36 q5,0 5,5 v81 h-46 v-81 q0,-5 5,-5z" fill="#22C55E" fill-opacity="0.85"/>
<text x="578" y="157" fill="#22C55E" font-size="9" font-weight="600" text-anchor="middle" font-family="'Fira Code',monospace">284</text>
<text x="578" y="262" fill="#475569" font-size="10" text-anchor="middle" font-family="sans-serif">UGA</text>
<path d="M622,127 h36 q5,0 5,5 v116 h-46 v-116 q0,-5 5,-5z" fill="#F59E0B" fill-opacity="0.85"/>
<text x="640" y="122" fill="#F59E0B" font-size="9" font-weight="600" text-anchor="middle" font-family="'Fira Code',monospace">401</text>
<text x="640" y="262" fill="#475569" font-size="10" text-anchor="middle" font-family="sans-serif">ETH</text>
<path d="M684,106 h36 q5,0 5,5 v137 h-46 v-137 q0,-5 5,-5z" fill="#F97316" fill-opacity="0.85"/>
<text x="702" y="101" fill="#F97316" font-size="9" font-weight="600" text-anchor="middle" font-family="'Fira Code',monospace">468</text>
<text x="702" y="262" fill="#475569" font-size="10" text-anchor="middle" font-family="sans-serif">TZA</text>
<path d="M746,88 h36 q5,0 5,5 v155 h-46 v-155 q0,-5 5,-5z" fill="#EF4444" fill-opacity="0.85"/>
<text x="764" y="83" fill="#EF4444" font-size="9" font-weight="600" text-anchor="middle" font-family="'Fira Code',monospace">530</text>
<text x="764" y="262" fill="#475569" font-size="10" text-anchor="middle" font-family="sans-serif">KEN</text>
<rect x="454" y="288" width="372" height="22" rx="6" fill="#060D1B" fill-opacity="0.7" stroke="#172236" stroke-width="1"/>
<text x="462" y="303" fill="#475569" font-size="9" font-family="sans-serif">Metric definition</text>
<text x="818" y="303" fill="#475569" font-size="11" text-anchor="middle">∨</text>
<rect x="440" y="20" width="400" height="300" rx="14" fill="none" stroke="#3B82F6" stroke-width="2" stroke-opacity="0.3"/>
</svg>